# AST/ASF file generated using VICON BodyLanguage
# -----------------------------------------------
:version 1.10
:name VICON
:units
  mass 1.0
  length 0.45
  angle deg
:documentation
   .ast/.asf automatically generated from VICON data using
   VICON BodyBuilder and BodyLanguage model FoxedUp or BRILLIANT.MOD
:root
   order TX TY TZ RX RY RZ
   axis XYZ
   position 0 0 0  
   orientation 0 0 0 
:bonedata
  begin
     id 1 
     name lhipjoint
     direction 0.682418 -0.694059 0.22932 
     length 2.25561 
     axis 0 0 0  XYZ
  end
  begin
     id 2 
     name lfemur
     direction 0.34202 -0.939693 0  
     length 6.96448  
     axis 0 0 20  XYZ
    dof rx ry rz
    limits (-160.0 20.0)
           (-70.0 70.0)
           (-60.0 70.0)
  end
  begin
     id 3 
     name ltibia
     direction 0.34202 -0.939693 0   
     length 6.88553   
     axis 0 0 20   XYZ
    dof rx
    limits (-10.0 170.0)
  end
  begin
     id 4 
     name lfoot
     direction 0.0723587 -0.198804 0.977364   
     length 1.88518   
     axis -90 7.62852e-016 20   XYZ
    dof rx rz
    limits (-45.0 90.0)
           (-70.0 20.0)
  end
  begin
     id 5 
     name ltoes
     direction 1.53558e-011 -4.21962e-011 1   
     length 0.952124   
     axis -90 7.62852e-016 20   XYZ
    dof rx
    limits (-90.0 20.0)
  end
  begin
     id 6 
     name rhipjoint
     direction -0.657603 -0.71533 0.236348   
     length 2.18854  
     axis 0 0 0  XYZ 
  end
  begin
     id 7 
     name rfemur
     direction -0.34202 -0.939693 0   
     length 6.86686   
     axis 0 0 -20   XYZ
    dof rx ry rz
    limits (-160.0 20.0)
           (-70.0 70.0)
           (-70.0 60.0)
  end
  begin
     id 8 
     name rtibia
     direction -0.34202 -0.939693 0   
     length 6.59503   
     axis 0 0 -20   XYZ
    dof rx
    limits (-10.0 170.0)
 end
 begin
     id 9 
     name rfoot
     direction -0.101977 -0.280179 0.954516   
     length 1.93723  
     axis -90 -7.62852e-016 -20   XYZ
    dof rx rz
    limits (-45.0 90.0)
           (-20.0 70.0)
  end
  begin
     id 10 
     name rtoes
     direction -1.53564e-011 -4.21897e-011 1   
     length 0.970315   
     axis -90 -7.62852e-016 -20   XYZ
    dof rx
    limits (-90.0 20.0)
  end
  begin
     id 11 
     name lowerback
     direction -0.0339559 0.999421 -0.00235966   
     length 1.88543   
     axis 0 0 0   XYZ
    dof rx ry rz
    limits (-20.0 45.0)
           (-30.0 30.0)
           (-30.0 30.0)
  end
  begin
     id 12 
     name upperback
     direction 0.00401003 0.999739 0.0224689   
     length 1.8856   
     axis 0 0 0   XYZ
    dof rx ry rz
    limits (-20.0 45.0)
           (-30.0 30.0)
           (-30.0 30.0)
  end
  begin
     id 13 
     name thorax
     direction 0.0198619 0.999546 0.0226536   
     length 1.88352   
     axis 0 0 0   XYZ
    dof rx ry rz
    limits (-20.0 45.0)
           (-30.0 30.0)
           (-30.0 30.0)
  end
  begin
     id 14 
     name lowerneck
     direction -0.0461848 0.998632 0.0245198   
     length 1.34895   
     axis 0 0 0   XYZ
    dof rx ry rz
    limits (-20.0 45.0)
           (-30.0 30.0)
           (-30.0 30.0)
  end
  begin
     id 15 
     name upperneck
     direction -0.0180627 0.994724 -0.100984   
     length 1.35214   
     axis 0 0 0   XYZ
    dof rx ry rz
    limits (-20.0 45.0)
           (-30.0 30.0)
           (-30.0 30.0)
  end
  begin
     id 16
     name head
     direction -0.00374772 0.999293 -0.037403  
     length 1.3568  
     axis 0 0 0   XYZ
    dof rx ry rz
    limits (-20.0 45.0)
           (-30.0 30.0)
           (-30.0 30.0)
  end
  begin
     id 17 
     name lclavicle
     direction 0.971773 0.191119 0.138311  
     length 2.84954  
     axis 0 0 0   XYZ
    dof ry rz
    limits (-20.0 10.0)
           (0.0 20.0)
  end
  begin
     id 18 
     name lhumerus
     direction 1 -4.4897e-011 -2.43761e-027   
     length 4.40919   
     axis 180 -30 -90   XYZ
    dof rx ry rz
    limits (-60.0 90.0)
           (-90.0 90.0)
           (-90.0 90.0)
  end
  begin
     id 19
     name lradius
     direction 1 -4.4896e-011 -9.1621e-027   
     length 3.03857   
     axis 180 -30 -90   XYZ
    dof rx
    limits (-10.0 170.0)
  end
  begin
     id 20
     name lwrist
     direction 1 -4.4896e-011 -1.41363e-026   
     length 1.51928   
     axis 1.07133e-014 90 90   XYZ
    dof ry
    limits (-180.0 0.0)
 end
  begin
     id 21 
     name lhand
     direction 1 -4.48978e-011 -2.82725e-026   
     length 0.523208   
     axis 1.80403e-014 90 90   XYZ
    dof rx rz
    limits (-90.0 90.0)
           (-45.0 45.0)
  end
  begin
     id 22 
     name lfingers
     direction 1 -4.48977e-011 -5.6545e-026   
     length 0.421824   
     axis 3.60806e-014 90 90   XYZ
    dof rx
    limits (0.0 90.0)
  end
  begin
     id 23
     name lthumb
     direction 0.707107 -6.34962e-011 0.707107   
     length 0.605657   
     axis -90 45 2.85299e-015   XYZ
    dof rx rz
    limits (-45.0 45.0)
           (-45.0 45.0)
  end
  begin
     id 24 
     name rclavicle
     direction -0.957247 0.24311 0.156766   
     length 3.12406  
     axis 0 0 0   XYZ 
    dof ry rz
    limits (-10.0 20.0)
           (-20.0 0.0)
  end
  begin
     id 25 
     name rhumerus
     direction -1 -4.48964e-011 -1.70632e-027  
     length 4.61969   
     axis 180 30 90   XYZ
    dof rx ry rz
    limits (-90.0 60.0)
           (-90.0 90.0)
           (-90.0 90.0)
  end
  begin
     id 26 
     name rradius
     direction -1 -4.48966e-011 -6.60395e-027   
     length 3.09382   
     axis 180 30 90   XYZ
    dof rx
    limits (-10.0 170.0)
  end
  begin
     id 27 
     name rwrist
     direction -1 -4.48963e-011 -1.41363e-026   
     length 1.54691   
     axis 1.07133e-014 -90 -90   XYZ
    dof ry
    limits (-180.0 0.0)
  end
  begin
     id 28
     name rhand
     direction -1 -4.49013e-011 -2.82725e-026   
     length 0.500896   
     axis 1.80403e-014 -90 -90   XYZ
    dof rx rz
    limits (-90.0 90.0)
           (-45.0 45.0)
  end
  begin
     id 29
     name rfingers
     direction -1 -4.48902e-011 -5.6545e-026   
     length 0.403835   
     axis 3.60806e-014 -90 -90   XYZ
    dof rx
    limits (0.0 90.0)
  end
  begin
     id 30
     name rthumb
     direction -0.707107 -6.34953e-011 0.707107   
     length 0.579829   
     axis -90 -45 -2.85299e-015   XYZ
    dof rx rz
    limits (-45.0 45.0)
           (-45.0 45.0)
  end
:hierarchy
  begin
    root lhipjoint rhipjoint lowerback
    lhipjoint lfemur
    lfemur ltibia
    ltibia lfoot
    lfoot ltoes
    rhipjoint rfemur
    rfemur rtibia
    rtibia rfoot
    rfoot rtoes
    lowerback upperback
    upperback thorax
    thorax lowerneck lclavicle rclavicle
    lowerneck upperneck
    upperneck head
    lclavicle lhumerus
    lhumerus lradius
    lradius lwrist
    lwrist lhand lthumb
    lhand lfingers
    rclavicle rhumerus
    rhumerus rradius
    rradius rwrist
    rwrist rhand rthumb
    rhand rfingers
  end

#!OML:ASF E:\madness\Project 1\Capture day 1\Session 1\Female1.ASF
:FULLY-SPECIFIED
:DEGREES
854
root 7.51254 16.4376 -1.72845 194.813 -75.633 -188.824
lowerback -6.95592 -0.423022 -4.89637
upperback -5.10406 -0.495755 0.405595
thorax -1.34902 -0.196555 3.14054
lowerneck 4.76844 -3.28772 -1.13539
upperneck 8.38956 -4.38229 -6.36798
head 1.69851 -2.4548 -1.81867
rclavicle -3.59552e-014 -1.68967e-015
rhumerus -46.9596 7.50912 -96.4028
rradius 107.014
rwrist -56.6578
rhand -15.4517 -61.1656
rfingers 7.12502
rthumb 10.7291 450.872
lclavicle -3.59552e-014 -1.68967e-015
lhumerus -52.2313 -0.0107416 93.7133
lradius 134.224
lwrist 54.4597
lhand -45.9788 35.5267
lfingers 7.12502
lthumb -18.7253 64.6454
rfemur -0.529666 16.4362 20.549
rtibia 0.864491
rfoot -7.25714 -15.565
rtoes 20.9864
lfemur -7.10249 -9.33484 -15.1361
ltibia 17.5673
lfoot -7.61269 31.4492
ltoes 18.6305
855
root 7.5091 16.4365 -1.73002 194.687 -75.6679 -188.67
lowerback -6.92295 -0.405506 -4.73326
upperback -5.09729 -0.481981 0.348444
thorax -1.36133 -0.194269 2.99052
lowerneck 5.16324 -3.05899 -1.20128
upperneck 7.64764 -4.11956 -6.04007
head 1.40784 -2.28607 -1.67626
rclavicle 3.90115e-015 -6.95746e-016
rhumerus -46.941 7.40435 -96.4701
rradius 106.991
rwrist -56.7074
rhand -15.3518 -60.7073
rfingers 7.12502
rthumb 10.8254 450.408
lclavicle 3.90115e-015 -6.95746e-016
lhumerus -52.1394 -0.0456453 93.5817
lradius 134.124
lwrist 54.5321
lhand -46.205 37.817
lfingers 7.12502
lthumb -18.9428 66.9146
rfemur -0.375395 16.4044 20.6191
rtibia 0.533617
rfoot -6.99003 -15.6141
rtoes 20.5011
lfemur -7.11403 -9.35219 -15.0774
ltibia 17.5544
lfoot -7.48421 31.4687
ltoes 18.3437
856
root 7.50358 16.436 -1.73214 194.679 -75.6651 -188.666
lowerback -7.05779 -0.404519 -4.67595
upperback -4.99144 -0.469843 0.32227
thorax -1.17748 -0.194543 2.93057
lowerneck 5.16584 -2.95735 -1.05542
upperneck 7.13139 -3.98381 -6.03816
head 1.24408 -2.1934 -1.69029
rclavicle 1.63749e-014 9.14409e-015
rhumerus -46.793 7.38896 -96.4954
rradius 106.968
rwrist -56.8227
rhand -15.6821 -60.3406
rfingers 7.12502
rthumb 10.5068 450.058
lclavicle 1.63749e-014 9.14409e-015
lhumerus -52.0063 -0.0254547 93.4709
lradius 134.117
lwrist 54.5077
lhand -46.3624 39.3993
lfingers 7.12502
lthumb -19.0942 68.4821
rfemur -0.0775223 16.3928 20.6506
rtibia -3.97569e-015
rfoot -6.67079 -15.6048
rtoes 20.4239
lfemur -7.08045 -9.36158 -15.0789
ltibia 17.5498
lfoot -7.43202 31.4722
ltoes 18.4132
857
root 7.49542 16.4352 -1.73403 194.543 -75.5561 -188.656
lowerback -7.04329 -0.370835 -4.6252
upperback -4.92793 -0.423735 0.286456
thorax -1.12326 -0.174187 2.86752
lowerneck 4.95253 -2.78939 -1.02367
upperneck 7.13687 -3.74779 -5.99881
head 1.28809 -2.07559 -1.68955
rclavicle -2.75938e-014 1.07344e-014
rhumerus -46.7716 7.33197 -96.5528
rradius 106.934
rwrist -56.8604
rhand -15.9974 -60.4505
rfingers 7.12502
rthumb 10.2027 450.183
lclavicle -2.75938e-014 1.07344e-014
lhumerus -52.0301 -0.0513836 93.3939
lradius 134.162
lwrist 54.4237
lhand -46.2095 40.5968
lfingers 7.12502
lthumb -18.9472 69.694
rfemur 0.0747775 16.4963 20.6619
rtibia -7.15625e-015
rfoot -6.68467 -15.5515
rtoes 20.7315
lfemur -6.87771 -9.4097 -15.1436
ltibia 17.5441
lfoot -7.59836 31.5889
ltoes 18.9015
858
root 7.48934 16.4343 -1.73607 194.413 -75.441 -188.579
lowerback -6.99773 -0.382356 -4.63071
upperback -4.96202 -0.443302 0.318698
thorax -1.18219 -0.181993 2.90322
lowerneck 5.05002 -2.84521 -0.775752
upperneck 6.73952 -3.8142 -6.42233
head 1.13233 -2.09393 -1.8577
rclavicle -4.88886e-014 5.06901e-015
rhumerus -46.8783 7.41458 -96.6011
rradius 106.852
rwrist -56.8124
rhand -15.9936 -60.6842
rfingers 7.12502
rthumb 10.2063 450.417
lclavicle -4.88886e-014 5.06901e-015
lhumerus -52.1018 0.0638686 93.3622
lradius 134.127
lwrist 54.301
lhand -46.1184 39.3118
lfingers 7.12502
lthumb -18.8596 68.4175
rfemur 0.127456 16.6125 20.6725
rtibia 5.56597e-015
rfoot -6.61614 -15.5575
rtoes 20.6165
lfemur -6.73963 -9.37865 -15.1861
ltibia 17.5081
lfoot -7.76685 31.6823
ltoes 19.0201
859
root 7.48875 16.4343 -1.73891 194.667 -75.4072 -188.751
lowerback -6.87985 -0.44257 -4.7347
upperback -5.15883 -0.538359 0.371392
thorax -1.44436 -0.220467 3.01252
lowerneck 5.12022 -2.72832 -0.524302
upperneck 6.62411 -3.64504 -6.85095
head 1.07763 -2.00593 -2.03824
rclavicle -3.79182e-014 -1.15295e-014
rhumerus -47.1631 7.5964 -96.6479
rradius 106.764
rwrist -56.7633
rhand -16.0027 -60.9353
rfingers 7.12502
rthumb 10.1975 450.668
lclavicle -3.79182e-014 -1.15295e-014
lhumerus -52.4121 0.288783 93.3371
lradius 134.109
lwrist 54.1834
lhand -46.4258 35.6752
lfingers 7.12502
lthumb -19.1552 64.7519
rfemur 0.0348749 16.6361 20.608
rtibia 1.59028e-015
rfoot -6.56969 -15.5737
rtoes 20.4378
lfemur -6.82215 -9.28773 -15.2146
ltibia 17.4437
lfoot -7.46148 31.6865
ltoes 18.0902
860
root 7.48807 16.435 -1.74079 194.861 -75.3556 -188.889
lowerback -7.12536 -0.466524 -4.76278
upperback -5.02437 -0.547984 0.36649
thorax -1.16761 -0.231922 3.02022
lowerneck 4.81877 -2.46298 -0.21767
upperneck 6.50986 -3.26094 -7.08069
head 1.09736 -1.80857 -2.17459
rclavicle 4.72114e-016 -5.86415e-015
rhumerus -46.9366 7.69116 -96.6281
rradius 106.664
rwrist -56.7406
rhand -15.9754 -60.8524
rfingers 7.12502
rthumb 10.2239 450.584
lclavicle 4.72114e-016 -5.86415e-015
lhumerus -52.219 0.279096 93.3404
lradius 134.07
lwrist 54.3115
lhand -47.1574 33.8935
lfingers 7.12502
lthumb -19.8586 62.8989
rfemur -0.657933 16.7109 20.5108
rtibia 1.26327
rfoot -7.23766 -15.5719
rtoes 20.6591
lfemur -6.86751 -9.23689 -15.2361
ltibia 17.3578
lfoot -7.07991 31.729
ltoes 17.4154
861
root 7.48597 16.4351 -1.74067 195.002 -75.2413 -189.061
lowerback -7.10485 -0.444773 -4.77402
upperback -5.00744 -0.518386 0.339942
thorax -1.16407 -0.21727 3.00089
lowerneck 4.46128 -2.12693 0.011018
upperneck 6.73165 -2.77855 -7.17934
head 1.24266 -1.57573 -2.26209
rclavicle -5.4144e-014 -4.27387e-015
rhumerus -46.9763 7.70105 -96.6453
rradius 106.583
rwrist -56.7507
rhand -15.7603 -60.256
rfingers 7.12502
rthumb 10.4314 630.023
lclavicle -5.4144e-014 -4.27387e-015
lhumerus -52.0902 0.235022 93.3024
lradius 133.965
lwrist 54.4797
lhand -47.5923 34.4129
lfingers 7.12502
lthumb -20.2766 63.3745
rfemur -1.1548 16.8362 20.4051
rtibia 2.27745
rfoot -7.7599 -15.6001
rtoes 20.6186
lfemur -6.73375 -9.25764 -15.3364
ltibia 17.2685
lfoot -7.20682 31.7852
ltoes 18.0148
862
root 7.48381 16.4363 -1.74036 195.146 -75.1641 -189.226
lowerback -6.9996 -0.419127 -4.77843
upperback -5.06055 -0.493159 0.30917
thorax -1.28002 -0.202085 2.97394
lowerneck 4.07552 -1.92325 0.230108
upperneck 7.00193 -2.47086 -7.35078
head 1.40346 -1.43392 -2.37134
rclavicle -8.1626e-015 7.25564e-015
rhumerus -47.0933 7.68295 -96.7032
rradius 106.526
rwrist -56.7781
rhand -15.7102 -59.7734
rfingers 7.12502
rthumb 10.4797 630.508
lclavicle -8.1626e-015 7.25564e-015
lhumerus -52.0605 0.244173 93.2355
lradius 133.822
lwrist 54.4987
lhand -47.2047 34.2231
lfingers 7.12502
lthumb -19.9041 63.2238
rfemur -1.37396 16.9108 20.3218
rtibia 2.74187
rfoot -8.03275 -15.6216
rtoes 20.4682
lfemur -6.6353 -9.29238 -15.4259
ltibia 17.2115
lfoot -7.14416 31.7919
ltoes 18.076
863
root 7.48013 16.4383 -1.74275 195.02 -75.1408 -189.093
lowerback -6.87557 -0.429275 -4.77383
upperback -5.18974 -0.522131 0.358961
thorax -1.48058 -0.211078 3.02277
lowerneck 3.89776 -1.76859 0.413181
upperneck 7.17511 -2.23938 -7.63533
head 1.49582 -1.3285 -2.50628
rclavicle 1.39895e-014 1.27222e-014
rhumerus -47.3609 7.74169 -96.7674
rradius 106.511
rwrist -56.801
rhand -15.7041 -59.6326
rfingers 7.12502
rthumb 10.4856 630.649
lclavicle 1.39895e-014 1.27222e-014
lhumerus -52.3133 0.362219 93.2744
lradius 133.768
lwrist 54.3405
lhand -46.7243 32.6533
lfingers 7.12502
lthumb -19.4422 61.7013
rfemur -1.4175 16.9452 20.3582
rtibia 2.86033
rfoot -8.08865 -15.6594
rtoes 20.3958
lfemur -6.59586 -9.18713 -15.3899
ltibia 17.1851
lfoot -6.98668 31.6887
ltoes 17.531
864
root 7.47565 16.4379 -1.74627 194.833 -75.1073 -188.914
lowerback -6.81911 -0.451978 -4.77844
upperback -5.25329 -0.55897 0.426987
thorax -1.5745 -0.225971 3.09458
lowerneck 3.90424 -1.57235 0.521833
upperneck 7.08786 -1.97173 -7.82286
head 1.47673 -1.19325 -2.58803
rclavicle 1.40392e-014 -2.78299e-015
rhumerus -47.5686 7.83969 -96.795
rradius 106.48
rwrist -56.7569
rhand -15.6167 -59.5813
rfingers 7.12502
rthumb 10.5699 630.704
lclavicle 1.40392e-014 -2.78299e-015
lhumerus -52.5063 0.50197 93.3273
lradius 133.775
lwrist 54.1654
lhand -46.4486 32.5826
lfingers 7.12502
lthumb -19.1771 61.6571
rfemur -1.34585 16.988 20.4249
rtibia 2.79874
rfoot -8.04745 -15.7019
rtoes 20.2951
lfemur -6.51711 -9.07829 -15.3464
ltibia 17.1719
lfoot -7.30164 31.6026
ltoes 17.8208
